<svg width="720" height="1280" viewBox="0 0 720 1280" fill="none" xmlns="http://www.w3.org/2000/svg">
  <rect width="720" height="1280" fill="#066B35"/>
  <circle cx="360" cy="620" r="210" fill="#24C86D" fill-opacity="0.18"/>
  <circle cx="360" cy="620" r="144" fill="#24C86D" fill-opacity="0.10"/>
  <rect x="239" y="552" width="242" height="234" rx="42" fill="white"/>
  <path d="M300 660C318 650 340 650 360 663V736C340 723 318 723 300 733V660Z" stroke="#06713B" stroke-width="10" stroke-linejoin="round"/>
  <path d="M360 663C380 650 402 650 420 660V733C402 723 380 723 360 736V663Z" stroke="#06713B" stroke-width="10" stroke-linejoin="round"/>
  <path d="M378 682H410" stroke="#06713B" stroke-width="7" stroke-linecap="round"/>
  <path d="M378 705H406" stroke="#06713B" stroke-width="7" stroke-linecap="round"/>
  <ellipse cx="398" cy="710" rx="32" ry="42" fill="#E7FFF2"/>
  <rect x="369" y="670" width="58" height="78" rx="29" fill="#31CE78"/>
  <path d="M387 709L397 719L414 700" stroke="#066B35" stroke-width="6" stroke-linecap="round" stroke-linejoin="round"/>
  <text x="360" y="895" text-anchor="middle" fill="white" font-family="Arial, Helvetica, sans-serif" font-size="38" font-weight="900">MEALTRACK PRO</text>
  <rect x="310" y="915" width="100" height="7" rx="3.5" fill="#35D883"/>
  <text x="360" y="1132" text-anchor="middle" fill="#B6D5C5" font-family="Arial, Helvetica, sans-serif" font-size="22" font-weight="700" letter-spacing="7">PRECISION INVENTORY.</text>
  <text x="360" y="1160" text-anchor="middle" fill="#B6D5C5" font-family="Arial, Helvetica, sans-serif" font-size="22" font-weight="700" letter-spacing="7">PROFESSIONAL FINANCE.</text>
  <circle cx="330" cy="1230" r="6" fill="#B6D5C5" fill-opacity="0.35"/>
  <circle cx="360" cy="1230" r="6" fill="#B6D5C5" fill-opacity="0.6"/>
  <circle cx="390" cy="1230" r="6" fill="#B6D5C5" fill-opacity="0.35"/>
</svg>
