<svg width="512" height="512" viewBox="0 0 512 512" fill="none" xmlns="http://www.w3.org/2000/svg">
  <circle cx="256" cy="256" r="236" fill="#24C86D" fill-opacity="0.18"/>
  <circle cx="256" cy="256" r="162" fill="#24C86D" fill-opacity="0.10"/>
  <rect x="135" y="139" width="242" height="234" rx="42" fill="white"/>
  <path d="M196 247C214 237 236 237 256 250V323C236 310 214 310 196 320V247Z" stroke="#06713B" stroke-width="10" stroke-linejoin="round"/>
  <path d="M256 250C276 237 298 237 316 247V320C298 310 276 310 256 323V250Z" stroke="#06713B" stroke-width="10" stroke-linejoin="round"/>
  <path d="M274 269H306" stroke="#06713B" stroke-width="7" stroke-linecap="round"/>
  <path d="M274 292H302" stroke="#06713B" stroke-width="7" stroke-linecap="round"/>
  <ellipse cx="294" cy="297" rx="32" ry="42" fill="#E7FFF2"/>
  <rect x="265" y="257" width="58" height="78" rx="29" fill="#31CE78"/>
  <path d="M283 296L293 306L310 287" stroke="#066B35" stroke-width="6" stroke-linecap="round" stroke-linejoin="round"/>
</svg>
